<svg width="203" height="36" viewBox="0 0 204 36" fill="none" xmlns="http://www.w3.org/2000/svg">
<g clip-path="url(#clip0)">
<path d="M36 17.82C35.88 7.98 27.9 0 18 0C17.94 0 17.88 0 17.82 0V17.82H36Z" fill="#FFCD4E"/>
<path d="M17.82 0C8.04 0.12 0.12 8.04 0 17.82H17.82V0Z" fill="#85CA6D"/>
<path d="M17.82 17.82V36C17.88 36 17.94 36 18 36C27.96 36 36 27.96 36 18C36 17.94 36 17.88 36 17.82H17.82Z" fill="#448EE5"/>
<path d="M0 17.82C0 17.88 0 17.94 0 18C0 27.9 7.98 35.88 17.82 36V17.82H0Z" fill="#DF4F4F"/>
<g opacity="0.75">
<path d="M60.72 21.06C60.72 24.54 58.5 26.34 54 26.34H48.9V8.82H59.58V11.28H51.78V15.96H53.88C58.44 15.9 60.72 17.64 60.72 21.06ZM53.82 23.88C55.2 23.88 56.22 23.64 56.82 23.22C57.48 22.74 57.78 22.02 57.78 21.06C57.78 20.1 57.48 19.38 56.82 18.96C56.16 18.54 55.08 18.3 53.46 18.3H51.72V23.88H53.82Z" fill="black"/>
<path d="M76.38 21.06C76.38 22.8 75.78 24.06 74.64 24.96C73.5 25.86 71.82 26.28 69.66 26.28H64.2V8.82H67.08V15.9H69.54C71.76 15.9 73.44 16.32 74.64 17.22C75.84 18.12 76.38 19.38 76.38 21.06ZM69.48 23.88C70.74 23.88 71.76 23.64 72.42 23.22C73.08 22.74 73.44 22.02 73.44 21.06C73.44 20.1 73.08 19.44 72.42 19.02C71.76 18.6 70.62 18.36 69.12 18.36H67.02V23.88H69.48Z" fill="black"/>
<path d="M102.06 17.52C102.06 20.4 101.4 22.56 100.02 24.18C98.64 25.74 96.78 26.52 94.26 26.52C91.92 26.52 90.06 25.8 88.68 24.42C87.36 22.98 86.58 21 86.46 18.42H82.68V26.28H79.8V8.82H82.68V15.96H86.52C86.76 13.56 87.54 11.7 88.86 10.44C90.18 9.18 91.98 8.52 94.26 8.52C96.72 8.52 98.64 9.3 99.96 10.86C101.4 12.48 102.06 14.7 102.06 17.52ZM89.52 17.52C89.52 19.68 89.94 21.3 90.72 22.44C91.5 23.52 92.7 24.12 94.32 24.12C95.94 24.12 97.14 23.58 97.92 22.44C98.7 21.3 99.12 19.68 99.12 17.52C99.12 15.36 98.7 13.74 97.92 12.6C97.14 11.46 95.94 10.92 94.38 10.92C92.76 10.92 91.56 11.46 90.78 12.6C89.94 13.74 89.52 15.36 89.52 17.52Z" fill="black"/>
<path d="M111.9 26.28H109.02V11.28H103.86V8.82H117V11.28H111.84V26.28H111.9Z" fill="black"/>
<path d="M119.7 8.82H122.34V17.88C122.34 18.84 122.34 19.8 122.28 20.76C122.22 21.72 122.22 22.38 122.16 22.74H122.28L131.22 8.82H134.58V26.28H131.94V17.28C131.94 15.9 132 14.22 132.18 12.24H132.06L123.06 26.28H119.7V8.82Z" fill="black"/>
<path d="M146.58 11.04C144.96 11.04 143.64 11.64 142.68 12.78C141.72 13.92 141.24 15.54 141.24 17.58C141.24 19.74 141.72 21.36 142.62 22.44C143.52 23.52 144.84 24.12 146.52 24.12C147.24 24.12 147.96 24.06 148.68 23.88C149.4 23.76 150.12 23.52 150.84 23.34V25.8C149.46 26.34 147.9 26.58 146.16 26.58C143.58 26.58 141.66 25.8 140.28 24.24C138.9 22.68 138.24 20.46 138.24 17.58C138.24 15.78 138.6 14.16 139.26 12.78C139.92 11.4 140.88 10.38 142.14 9.66C143.4 8.94 144.9 8.58 146.58 8.58C148.38 8.58 150 8.94 151.56 9.72L150.54 12.12C149.94 11.82 149.34 11.58 148.68 11.4C147.96 11.1 147.3 11.04 146.58 11.04Z" fill="black"/>
<path d="M168.06 26.28H164.7L157.5 17.4V26.28H154.62V8.82H157.5V17.28L164.58 8.82H167.7L160.62 17.28L168.06 26.28Z" fill="black"/>
<path d="M185.88 17.52C185.88 20.34 185.16 22.56 183.72 24.18C182.28 25.74 180.3 26.52 177.66 26.52C175.02 26.52 172.98 25.74 171.6 24.18C170.16 22.62 169.5 20.4 169.5 17.52C169.5 14.64 170.22 12.42 171.66 10.86C173.1 9.3 175.14 8.52 177.78 8.52C180.36 8.52 182.4 9.3 183.78 10.86C185.16 12.42 185.88 14.7 185.88 17.52ZM172.56 17.52C172.56 19.68 172.98 21.3 173.88 22.44C174.72 23.58 176.04 24.12 177.72 24.12C179.4 24.12 180.72 23.58 181.56 22.44C182.4 21.36 182.88 19.68 182.88 17.52C182.88 15.36 182.46 13.74 181.62 12.66C180.78 11.58 179.46 10.98 177.78 10.98C176.04 10.98 174.78 11.52 173.88 12.66C172.98 13.74 172.56 15.36 172.56 17.52Z" fill="black"/>
<path d="M203.1 26.28H200.22V11.28H192.48V26.34H189.6V8.82H203.04V26.28H203.1Z" fill="black"/>
</g>
</g>
<defs>
<clipPath id="clip0">
<rect width="203.1" height="36" fill="white"/>
</clipPath>
</defs>
</svg>
