<svg width="80" height="80" viewBox="0 0 70 80" fill="none" xmlns="http://www.w3.org/2000/svg">
<path d="M21.25 42.5156H48.7188C48.7344 42.5156 48.7344 42.5156 48.75 42.5156C52.2031 42.5156 55 39.7188 55 36.2656V6.25C55 6.23438 55 6.23438 55 6.21875C54.9844 2.79688 52.1875 0.015625 48.7656 0H21.25C17.7969 0 15 2.79688 15 6.25V36.25C15 39.7031 17.7969 42.5156 21.25 42.5156ZM21.25 12.5H48.7188C48.7344 12.5 48.7344 12.5 48.75 12.5C50.1562 12.5 51.4531 12.0156 52.5 11.2188V16.25C52.5 16.25 52.5 16.25 52.5 16.2656C52.5 18.3281 50.8281 20 48.7656 20.0156H21.25C19.1875 20.0156 17.5 18.3281 17.5 16.2656V11.2188C18.5469 12.0156 19.8438 12.5 21.25 12.5ZM21.25 22.5H48.7188C48.7344 22.5 48.7344 22.5 48.75 22.5C50.1562 22.5 51.4531 22.0156 52.5 21.2188V26.25C52.5 26.25 52.5 26.25 52.5 26.2656C52.5 28.3281 50.8281 30 48.7656 30.0156H21.25C19.1875 30.0156 17.5 28.3281 17.5 26.2656V21.2344C18.5469 22.0156 19.8438 22.5 21.25 22.5ZM48.7656 40.0156L21.25 40C19.1875 40 17.5 38.3125 17.5 36.25V31.2188C18.5469 32.0156 19.8438 32.5 21.25 32.5H48.7188C48.7344 32.5 48.7344 32.5 48.75 32.5C50.1562 32.5 51.4531 32.0156 52.5 31.2188V36.2656C52.5 38.3281 50.8281 40 48.7656 40.0156ZM21.2344 2.5H48.75C50.8125 2.5 52.5 4.1875 52.5 6.25C52.5 8.3125 50.8281 9.98438 48.7656 10H21.25C19.1875 10 17.5 8.3125 17.5 6.25C17.5 4.1875 19.1719 2.51562 21.2344 2.5Z" fill="white"/>
<path d="M22.4844 63.7969C22.4844 61.7344 20.7969 60.0469 18.7344 60.0469H3.75C1.6875 60.0469 0 61.7344 0 63.7969V66.2969C0 66.3281 0.0156248 66.375 0.0156248 66.4062V78.75C0.0156248 79.4375 0.578125 80 1.26562 80H21.25C21.9375 80 22.5 79.4375 22.5 78.75V65.0469C22.5 65.0156 22.4844 64.9688 22.4844 64.9375V63.7969ZM3.75 62.5469H18.7188C19.4062 62.5469 19.9688 63.1094 19.9688 63.7969H2.5C2.5 63.0938 3.0625 62.5469 3.75 62.5469ZM2.53125 77.5V66.2969H19.9844C19.9844 66.3281 20 66.375 20 66.4062V77.5H2.53125Z" fill="white"/>
<path d="M46.2344 63.7969C46.2344 61.7344 44.5469 60.0469 42.4844 60.0469H27.5C25.4375 60.0469 23.75 61.7344 23.75 63.7969V66.2969C23.75 66.3281 23.7656 66.375 23.7656 66.4062V78.75C23.7656 79.4375 24.3281 80 25.0156 80H45C45.6875 80 46.25 79.4375 46.25 78.75V65.0469C46.25 65.0156 46.2344 64.9688 46.2344 64.9375V63.7969ZM27.5 62.5469H42.4688C43.1562 62.5469 43.7188 63.1094 43.7188 63.7969H26.25C26.25 63.0938 26.8125 62.5469 27.5 62.5469ZM26.2812 77.5V66.2969H43.7344C43.7344 66.3281 43.75 66.375 43.75 66.4062V77.5H26.2812Z" fill="white"/>
<path d="M69.9688 63.75C69.9688 61.6875 68.2812 60 66.2188 60H51.25C49.1875 60 47.5 61.6875 47.5 63.75V66.25C47.5 66.2812 47.5156 66.3281 47.5156 66.3594V78.7031C47.5156 79.3906 48.0781 79.9531 48.7656 79.9531H68.75C69.4375 79.9531 70 79.3906 70 78.7031V65C70 64.9688 69.9844 64.9219 69.9844 64.8906V63.75H69.9688ZM51.25 62.5H66.2188C66.9062 62.5 67.4688 63.0625 67.4688 63.75H50C50 63.0625 50.5625 62.5 51.25 62.5ZM50.0312 77.4531V66.25H67.4844C67.4844 66.2812 67.5 66.3281 67.5 66.3594V77.4531H50.0312Z" fill="white"/>
<path d="M10.0156 51.25V57.5C10.0156 58.1875 10.5781 58.75 11.2656 58.75C11.9531 58.75 12.5156 58.1875 12.5156 57.5V52.5H33.7656V57.5C33.7656 58.1875 34.3281 58.75 35.0156 58.75C35.7031 58.75 36.2656 58.1875 36.2656 57.5V52.5H57.5156V57.5C57.5156 58.1875 58.0781 58.75 58.7656 58.75C59.4531 58.75 60.0156 58.1875 60.0156 57.5V51.25C60.0156 50.5625 59.4531 50 58.7656 50H36.2656V45C36.2656 44.3125 35.7031 43.75 35.0156 43.75C34.3281 43.75 33.7656 44.3125 33.7656 45V50H11.2656C10.5781 50 10.0156 50.5625 10.0156 51.25Z" fill="white"/>
</svg>
