<svg width="80" height="80" viewBox="0 0 80 80" fill="none" xmlns="http://www.w3.org/2000/svg">
<path d="M10.2619 58.5946C10.395 58.7276 10.5613 58.8274 10.7276 58.894V78.6694C10.7276 79.4012 11.3264 80 12.0582 80H73.1476C73.8794 80 74.4781 79.4012 74.4781 78.6694V46.8025C74.4781 46.0707 73.8794 45.4719 73.1476 45.4719H66.4948C67.842 43.7089 69.1559 41.5967 69.1559 40.1663C69.1559 37.9542 67.7921 35.975 65.7131 35.1933C63.6507 34.4116 61.3056 34.9937 59.8586 36.6569C58.395 34.9937 56.0665 34.4283 54.0041 35.1933C51.9418 35.975 50.5779 37.9542 50.5613 40.1663C50.5613 41.5967 51.8752 43.7256 53.2224 45.4719H25.264L59.0935 11.6424C59.6091 11.1268 59.6091 10.2786 59.0935 9.76298L49.6964 0.365889C49.1642 -0.133071 48.3493 -0.133071 47.817 0.365889L35.4428 12.7401C31.1019 9.34718 25.9459 7.23491 23.4012 9.76298C21.738 11.4262 22.0873 14.237 23.4844 17.1975L17.6798 23.0021C14.7193 21.605 11.9085 21.2557 10.2453 22.9189C7.71723 25.447 9.8295 30.6195 13.2391 34.9605L0.864844 47.3347C0.349251 47.8503 0.349251 48.6985 0.864844 49.2141L10.2619 58.5946ZM53.2224 40.1497C53.2224 38.6861 54.4199 37.4885 55.8836 37.4885C57.3472 37.4885 58.5447 38.6861 58.5447 40.1497V40.5156C58.5447 41.2474 59.1434 41.8461 59.8752 41.8461C60.607 41.8461 61.2058 41.2474 61.2058 40.5156V40.1497C61.2058 38.6861 62.4033 37.4885 63.8669 37.4885C65.3305 37.4885 66.528 38.6861 66.528 40.1497C65.763 42.1455 64.5821 43.9584 63.0686 45.4553H56.7152C55.1684 43.9584 53.9875 42.1455 53.2224 40.1497ZM49.2474 48.1164H71.8337V77.3389H49.2474V48.1164ZM38.6195 48.1164H46.5863V77.3389H38.6195V48.1164ZM35.9584 48.1164V77.3389H13.3888V57.4137H13.3056L22.6694 48.0499V48.1164H35.9584ZM29.9875 37.0062L22.4698 29.4886L29.9875 21.9709L37.5052 29.4886L29.9875 37.0062ZM48.7651 3.19333L56.2827 10.711L39.368 27.6091L31.8503 20.1081L48.7651 3.19333ZM25.2806 11.6424C25.5967 11.3929 25.9958 11.2599 26.4116 11.2931C27.8919 11.2931 30.4698 12.2578 33.5634 14.6362L28.291 19.9085C25.0644 15.7505 24.4324 12.4906 25.2806 11.6424ZM24.8316 19.6091C25.3139 20.3576 25.8295 21.0894 26.395 21.8046L22.3035 25.896C21.5883 25.3305 20.8565 24.815 20.1081 24.3326L24.8316 19.6091ZM12.1414 24.7983C12.4574 24.5488 12.8565 24.4158 13.2723 24.449C14.7526 24.449 17.3472 25.4137 20.4241 27.7921L19.659 28.5572L15.1351 33.0644C11.9251 28.9064 11.2931 25.6466 12.1414 24.7983ZM20.5904 31.368L28.1081 38.8856L11.1933 55.7838L3.69229 48.2661L20.5904 31.368Z" fill="white"/>
<path d="M70.5031 18.0457C69.0395 16.3825 66.711 15.817 64.6486 16.5821C62.5863 17.3638 61.2224 19.343 61.2058 21.5551C61.2058 24.4324 67.4761 32.1829 70.5031 32.1829C73.5301 32.1829 79.8004 24.449 79.8004 21.5551C79.8004 19.343 78.4366 17.3638 76.3576 16.5821C74.2952 15.817 71.9501 16.3992 70.5031 18.0457ZM77.1393 21.5551C77.106 23.2183 72 29.3222 70.5197 29.5218C68.9896 29.3222 63.8836 23.2183 63.8503 21.5551C63.8503 20.0915 65.0478 18.894 66.5114 18.894C67.975 18.894 69.1725 20.0915 69.1725 21.5551V21.921C69.1725 22.6528 69.7713 23.2515 70.5031 23.2515C71.2349 23.2515 71.8337 22.6528 71.8337 21.921V21.5551C71.8337 20.0915 73.0312 18.894 74.4948 18.894C75.9418 18.9106 77.1393 20.0915 77.1393 21.5551Z" fill="white"/>
</svg>
