<svg width="12" height="13" viewBox="0 0 12 13" fill="none" xmlns="http://www.w3.org/2000/svg">
<path d="M11.656 10.4856C11.656 11.6818 10.6942 12.6539 9.51069 12.6539C8.32714 12.6539 7.36535 11.6793 7.36535 10.4856C7.36535 10.2338 7.4102 9.98954 7.48993 9.7629L4.19591 7.90191C3.80222 8.42067 3.18428 8.7556 2.49159 8.7556C1.30804 8.7556 0.34375 7.78356 0.34375 6.58739C0.34375 5.39122 1.30804 4.41917 2.4891 4.41917C3.18179 4.41917 3.79973 4.75158 4.19093 5.27034L7.48245 3.41187C7.40272 3.18775 7.36036 2.94599 7.36036 2.69417C7.36036 1.498 8.32216 0.525955 9.50571 0.525955C10.6893 0.525955 11.6511 1.498 11.6511 2.69417C11.6511 3.89034 10.6868 4.86238 9.50571 4.86238C8.81302 4.86238 8.19508 4.52746 7.80388 4.01122L4.50986 5.86968C4.5896 6.09633 4.63196 6.33556 4.63196 6.58739C4.63196 6.83669 4.5896 7.07845 4.51235 7.30257L7.80887 9.16356C8.20255 8.64983 8.818 8.31743 9.5082 8.31743C10.6918 8.31743 11.656 9.28947 11.656 10.4856Z" fill="#7C107E"/>
</svg>
