<svg width="24" height="24" viewBox="0 0 24 24" fill="none" xmlns="http://www.w3.org/2000/svg">
<path d="M16.7164 0H7.16418C3.22388 0 0 3.24 0 7.2V16.8C0 20.76 3.10448 24 7.16418 24H16.8358C20.7761 24 24 20.88 24 16.8V7.2C23.8806 3.24 20.7761 0 16.7164 0ZM21.4925 16.8C21.4925 19.44 19.3433 21.6 16.7164 21.6H7.16418C4.53731 21.6 2.38806 19.44 2.38806 16.8V7.2C2.38806 4.56 4.53731 2.4 7.16418 2.4H16.8358C19.4627 2.4 21.6119 4.56 21.6119 7.2V16.8H21.4925ZM11.9403 5.76C8.47761 5.76 5.85074 8.52 5.85074 12C5.85074 15.36 8.59701 18.12 11.9403 18.12C15.403 18.12 18.0299 15.36 18.0299 12C18.0299 8.52 15.403 5.76 11.9403 5.76ZM11.9403 15.84C9.79104 15.84 8.2388 14.16 8.2388 12C8.2388 9.84 9.91044 8.28 11.9403 8.28C13.9701 8.28 15.6418 9.96 15.6418 12C15.6418 14.16 14.0895 15.84 11.9403 15.84ZM18.1493 4.44C18.9851 4.44 19.5821 5.16 19.5821 5.88C19.5821 6.72 18.8657 7.32 18.1493 7.32C17.3134 7.32 16.7164 6.6 16.7164 5.88C16.597 5.04 17.3134 4.44 18.1493 4.44Z" fill="white"/>
</svg>
