<svg width="10" height="12" viewBox="0 0 10 12" fill="none" xmlns="http://www.w3.org/2000/svg">
<path d="M5.01884 0C2.58321 0 0.600006 1.9832 0.600006 4.41883C0.600006 5.05411 0.728938 5.66126 0.9868 6.22153C2.09092 8.63841 4.21009 11.1912 4.83365 11.9156C4.88053 11.9695 4.94851 12 5.01884 12C5.08916 12 5.15949 11.9695 5.20403 11.9156C5.82759 11.1912 7.94441 8.63841 9.05087 6.22153C9.30639 5.66126 9.43767 5.05411 9.43767 4.41883C9.43767 1.9832 7.45447 0 5.01884 0ZM5.01884 6.71381C3.75297 6.71381 2.72386 5.6847 2.72386 4.41883C2.72386 3.15296 3.75297 2.12385 5.01884 2.12385C6.28471 2.12385 7.31382 3.15296 7.31382 4.41883C7.31382 5.6847 6.28471 6.71381 5.01884 6.71381Z" fill="#7C107E"/>
</svg>
