<svg width="80" height="80" viewBox="0 0 80 80" fill="none" xmlns="http://www.w3.org/2000/svg">
<path d="M40 20.6452C29.3064 20.6452 20.6452 29.3064 20.6452 40C20.6452 50.6935 29.3064 59.3548 40 59.3548C50.6935 59.3548 59.3548 50.6935 59.3548 40C59.3548 29.3064 50.6935 20.6452 40 20.6452ZM40 56.7742C30.7581 56.7742 23.2258 49.2419 23.2258 40C23.2258 30.7581 30.7581 23.2258 40 23.2258C49.2419 23.2258 56.7742 30.7581 56.7742 40C56.7742 49.2419 49.2419 56.7742 40 56.7742Z" fill="white"/>
<path d="M78.0161 68.4516L65.6935 56.129L68 53.8226L66.1774 52L63.871 54.3065L61.4516 51.8871C63.4032 48.371 64.5161 44.3226 64.5161 40C64.5161 26.4677 53.5323 15.4839 40 15.4839C26.4677 15.4839 15.4839 26.4677 15.4839 40C15.4839 53.5323 26.4677 64.5161 40 64.5161C44.3064 64.5161 48.3548 63.4032 51.8871 61.4516L54.3065 63.871L52 66.1774L53.8226 68L56.129 65.6935L68.4516 78.0161C69.7258 79.2903 71.4355 80 73.2419 80C76.9677 80 80 76.9677 80 73.2419C80 71.4355 79.2903 69.7258 78.0161 68.4516ZM24.4839 55.5161C20.3387 51.371 18.0645 45.8548 18.0645 40C18.0645 34.1452 20.3387 28.629 24.4839 24.4839C28.629 20.3387 34.129 18.0645 40 18.0645C45.8548 18.0645 51.371 20.3387 55.5161 24.4839C59.6613 28.629 61.9355 34.1452 61.9355 40C61.9355 45.8548 59.6613 51.371 55.5161 55.5161C51.371 59.6613 45.8548 61.9355 40 61.9355C34.1452 61.9355 28.629 59.6613 24.4839 55.5161ZM73.2419 77.4193C72.129 77.4193 71.0806 76.9839 70.2903 76.1935L54.129 60.0484C56.4194 58.4355 58.4193 56.4194 60.0484 54.129L76.2097 70.2903C77 71.0806 77.4355 72.129 77.4355 73.2419C77.4194 75.5484 75.5484 77.4193 73.2419 77.4193Z" fill="white"/>
<path d="M68.3871 23.2258C74.7903 23.2258 80 18.0161 80 11.6129C80 5.20968 74.7903 0 68.3871 0C61.9839 0 56.7742 5.20968 56.7742 11.6129C56.7742 18.0161 61.9839 23.2258 68.3871 23.2258ZM72.2581 19.7581C71.0806 20.3226 69.7742 20.6452 68.3871 20.6452C67 20.6452 65.6936 20.3226 64.5161 19.7581V18.0645C64.5161 15.9355 66.2581 14.1935 68.3871 14.1935C70.5161 14.1935 72.2581 15.9355 72.2581 18.0645V19.7581ZM65.8064 9.03226C65.8064 7.6129 66.9677 6.45161 68.3871 6.45161C69.8064 6.45161 70.9677 7.6129 70.9677 9.03226C70.9677 10.4516 69.8064 11.6129 68.3871 11.6129C66.9677 11.6129 65.8064 10.4516 65.8064 9.03226ZM68.3871 2.58065C73.371 2.58065 77.4193 6.62903 77.4193 11.6129C77.4193 14.0806 76.4193 16.3064 74.8226 17.9355C74.7742 15.7742 73.6774 13.8548 71.9839 12.7097C72.9516 11.7742 73.5484 10.4839 73.5484 9.03226C73.5484 6.19355 71.2258 3.87097 68.3871 3.87097C65.5484 3.87097 63.2258 6.19355 63.2258 9.03226C63.2258 10.4839 63.8226 11.7742 64.7742 12.7097C63.0968 13.8548 61.9839 15.7581 61.9355 17.9355C60.3548 16.3064 59.3548 14.0806 59.3548 11.6129C59.3548 6.62903 63.4032 2.58065 68.3871 2.58065Z" fill="white"/>
<path d="M11.6129 23.2258C18.0161 23.2258 23.2258 18.0161 23.2258 11.6129C23.2258 5.20968 18.0161 0 11.6129 0C5.20968 0 0 5.20968 0 11.6129C0 18.0161 5.20968 23.2258 11.6129 23.2258ZM15.4839 19.7581C14.3065 20.3226 13 20.6452 11.6129 20.6452C10.2258 20.6452 8.91935 20.3226 7.74194 19.7581V18.0645C7.74194 15.9355 9.48387 14.1935 11.6129 14.1935C13.7419 14.1935 15.4839 15.9355 15.4839 18.0645V19.7581ZM9.03226 9.03226C9.03226 7.6129 10.1935 6.45161 11.6129 6.45161C13.0323 6.45161 14.1935 7.6129 14.1935 9.03226C14.1935 10.4516 13.0323 11.6129 11.6129 11.6129C10.1935 11.6129 9.03226 10.4516 9.03226 9.03226ZM11.6129 2.58065C16.5968 2.58065 20.6452 6.62903 20.6452 11.6129C20.6452 14.0806 19.6452 16.3064 18.0484 17.9355C18 15.7742 16.9032 13.8548 15.2097 12.7097C16.1774 11.7742 16.7742 10.4839 16.7742 9.03226C16.7742 6.19355 14.4516 3.87097 11.6129 3.87097C8.77419 3.87097 6.45161 6.19355 6.45161 9.03226C6.45161 10.4839 7.04839 11.7742 8 12.7097C6.32258 13.8548 5.20968 15.7581 5.16129 17.9355C3.58065 16.3064 2.58065 14.0806 2.58065 11.6129C2.58065 6.62903 6.62903 2.58065 11.6129 2.58065Z" fill="white"/>
<path d="M11.6129 56.7742C5.20968 56.7742 0 61.9839 0 68.3871C0 74.7903 5.20968 80 11.6129 80C18.0161 80 23.2258 74.7903 23.2258 68.3871C23.2258 61.9839 18.0161 56.7742 11.6129 56.7742ZM15.4839 76.5323C14.3065 77.0968 13 77.4193 11.6129 77.4193C10.2258 77.4193 8.91935 77.0968 7.74194 76.5323V74.8387C7.74194 72.7097 9.48387 70.9677 11.6129 70.9677C13.7419 70.9677 15.4839 72.7097 15.4839 74.8387V76.5323ZM9.03226 65.8064C9.03226 64.3871 10.1935 63.2258 11.6129 63.2258C13.0323 63.2258 14.1935 64.3871 14.1935 65.8064C14.1935 67.2258 13.0323 68.3871 11.6129 68.3871C10.1935 68.3871 9.03226 67.2258 9.03226 65.8064ZM18.0484 74.7097C18 72.5484 16.9032 70.629 15.2097 69.4839C16.1613 68.5484 16.7581 67.2419 16.7581 65.8064C16.7581 62.9677 14.4355 60.6452 11.5968 60.6452C8.75806 60.6452 6.43548 62.9677 6.43548 65.8064C6.43548 67.2581 7.03226 68.5484 7.98387 69.4839C6.30645 70.629 5.19355 72.5323 5.14516 74.7097C3.58065 73.0806 2.58065 70.8548 2.58065 68.3871C2.58065 63.4032 6.62903 59.3548 11.6129 59.3548C16.5968 59.3548 20.6452 63.4032 20.6452 68.3871C20.6452 70.8548 19.6452 73.0806 18.0484 74.7097Z" fill="white"/>
</svg>
