<svg width="11" height="20" viewBox="0 0 11 20" fill="none" xmlns="http://www.w3.org/2000/svg">
<path d="M8.49219 11.0156C8.31641 9.61719 7.21094 8.48438 5.78125 8.30859V6.48438H7.34375C7.55859 6.48438 7.73438 6.30859 7.73438 6.09375V2.34375C7.73438 1.04688 6.6875 0 5.39062 0C4.09766 0 3.04688 1.05078 3.04688 2.34375V6.09375C3.04688 6.30859 3.22266 6.48438 3.4375 6.48438H5V8.30859C3.59766 8.48438 2.46875 9.60156 2.28906 11.0156C0.992188 12.1406 0.738281 13.3398 0.703125 15.3828C0.703125 15.3867 0.703125 19.6094 0.703125 19.6094C0.703125 19.8242 0.878906 20 1.09375 20H9.6875C9.90234 20 10.0781 19.8242 10.0781 19.6094V15.2266C10.0312 13.3164 9.76562 12.1211 8.49219 11.0156ZM3.82812 5.70312V2.34375C3.82812 1.48047 4.52734 0.78125 5.39062 0.78125C6.25391 0.78125 6.95312 1.48047 6.95312 2.34375V5.70312H3.82812ZM7.73438 15.3125C7.73438 15.3359 7.73438 15.3594 7.73438 15.3828C7.73438 15.4023 7.73438 15.4219 7.73047 15.4414C7.73047 15.457 7.73047 15.4766 7.72656 15.4922C7.72656 15.5117 7.72266 15.5312 7.72266 15.5508V15.5547C7.72266 15.5742 7.71875 15.5938 7.71484 15.6133C7.71094 15.6289 7.71094 15.6445 7.70703 15.6562C7.70312 15.6875 7.69922 15.7148 7.69141 15.7422C7.6875 15.7578 7.6875 15.7695 7.68359 15.7852C7.67969 15.8047 7.67578 15.8242 7.67188 15.8438C7.66797 15.8633 7.66406 15.8828 7.65625 15.9023C7.64453 15.957 7.625 16.0117 7.60937 16.0664C7.60156 16.0859 7.59766 16.1055 7.58984 16.125C7.58203 16.1445 7.57812 16.1602 7.57031 16.1797C7.5625 16.1992 7.55469 16.2148 7.54688 16.2344C7.53125 16.2734 7.51172 16.3125 7.49219 16.3516C7.48437 16.3633 7.48047 16.375 7.47266 16.3906C7.46875 16.3945 7.46875 16.3984 7.46484 16.4062C7.34375 16.6406 7.18359 16.8516 6.99219 17.0312C6.96484 17.0586 6.9375 17.082 6.91016 17.1055C6.89453 17.1172 6.88281 17.1289 6.86719 17.1406C6.84375 17.1602 6.82031 17.1797 6.79297 17.1992C6.73047 17.2461 6.66797 17.2891 6.59766 17.332C6.58203 17.3398 6.56641 17.3516 6.55078 17.3594C6.51953 17.3789 6.48828 17.3945 6.45313 17.4102C6.43359 17.418 6.41797 17.4297 6.40234 17.4375C6.37109 17.4531 6.33984 17.4688 6.30469 17.4805C6.30078 17.4805 6.29688 17.4844 6.29297 17.4844C6.24219 17.5039 6.19141 17.5234 6.14063 17.543C6.13672 17.543 6.13281 17.543 6.12891 17.5469C6.11328 17.5508 6.09766 17.5586 6.08203 17.5625C6.06641 17.5664 6.04688 17.5742 6.03125 17.5781C6.02734 17.5781 6.02344 17.582 6.01953 17.582C6.00391 17.5859 5.98828 17.5898 5.97266 17.5938C5.95312 17.5977 5.93359 17.6016 5.91406 17.6094C5.89453 17.6133 5.875 17.6172 5.85547 17.6211C5.83594 17.625 5.81641 17.6289 5.79688 17.6328C5.78125 17.6367 5.76562 17.6406 5.74609 17.6406C5.74219 17.6406 5.73828 17.6406 5.73047 17.6445C5.71875 17.6445 5.71094 17.6484 5.69922 17.6484C5.6875 17.6484 5.67578 17.6523 5.66406 17.6523C5.64844 17.6523 5.63281 17.6562 5.62109 17.6562C5.60937 17.6562 5.59375 17.6602 5.58203 17.6602C5.51562 17.6641 5.45312 17.668 5.38672 17.668C5.32031 17.668 5.25391 17.6641 5.19141 17.6602C5.17969 17.6602 5.16406 17.6562 5.15234 17.6562C5.13672 17.6562 5.12109 17.6523 5.10937 17.6523C5.09766 17.6523 5.08594 17.6484 5.07422 17.6484C5.0625 17.6484 5.05078 17.6445 5.04297 17.6445C5.03906 17.6445 5.03516 17.6445 5.02734 17.6406C5.01172 17.6367 4.99219 17.6367 4.97656 17.6328C4.95703 17.6289 4.9375 17.625 4.91797 17.6211C4.89844 17.6172 4.87891 17.6133 4.85938 17.6094C4.83984 17.6055 4.82031 17.6016 4.80078 17.5938C4.78516 17.5898 4.76953 17.5859 4.75391 17.582C4.75 17.582 4.74609 17.5781 4.74219 17.5781C4.72656 17.5742 4.70703 17.5703 4.69141 17.5625C4.67578 17.5586 4.66016 17.5547 4.64453 17.5469C4.64062 17.5469 4.63672 17.543 4.63281 17.543C4.58203 17.5234 4.53125 17.5039 4.48047 17.4844C4.47656 17.4844 4.47266 17.4805 4.46875 17.4805C4.4375 17.4648 4.40234 17.4531 4.37109 17.4375C4.35156 17.4297 4.33594 17.418 4.32031 17.4102C4.28906 17.3945 4.25391 17.375 4.22266 17.3594C4.20703 17.3516 4.19141 17.3398 4.17578 17.332C4.10937 17.293 4.04297 17.2461 3.98047 17.1992C3.95703 17.1797 3.92969 17.1602 3.90625 17.1406C3.89062 17.1289 3.87891 17.1172 3.86328 17.1055C3.84766 17.0938 3.83594 17.082 3.82031 17.0664C3.80859 17.0547 3.79297 17.043 3.78125 17.0273C3.58984 16.8477 3.42969 16.6367 3.30859 16.4023C3.30469 16.3984 3.30469 16.3945 3.30078 16.3867C3.29297 16.375 3.28906 16.3594 3.28125 16.3477C3.26172 16.3086 3.24609 16.2695 3.22656 16.2305C3.21875 16.2109 3.21094 16.1953 3.20312 16.1758C3.19531 16.1562 3.1875 16.1406 3.18359 16.1211C3.17578 16.1016 3.16797 16.082 3.16406 16.0625C3.14453 16.0078 3.12891 15.9531 3.11719 15.8984C3.11328 15.8789 3.10937 15.8594 3.10156 15.8398C3.09766 15.8203 3.09375 15.8008 3.08984 15.7812C3.08594 15.7656 3.08594 15.7539 3.08203 15.7383C3.07812 15.7109 3.07031 15.6797 3.06641 15.6523C3.06641 15.6367 3.0625 15.6211 3.05859 15.6094C3.05469 15.5898 3.05469 15.5703 3.05078 15.5508V15.5469C3.05078 15.5273 3.04688 15.5078 3.04688 15.4883C3.04688 15.4727 3.04297 15.4531 3.04297 15.4375C3.04297 15.418 3.03906 15.3984 3.03906 15.3789C3.03906 15.3555 3.03906 15.332 3.03906 15.3086V11.4062C3.03906 10.2383 3.89844 9.28125 4.99219 9.09766V11.707L3.86328 13.9688C3.76562 14.1602 3.84375 14.3945 4.03906 14.4922C4.23047 14.5898 4.46484 14.5117 4.5625 14.3164L5.38281 12.6719L6.20703 14.3164C6.30469 14.5117 6.53906 14.5859 6.73047 14.4922C6.92187 14.3945 7 14.1602 6.90625 13.9688L5.77344 11.707V9.09766C6.90234 9.28516 7.72656 10.2695 7.72656 11.4102V15.3125H7.73438Z" fill="white"/>
<path d="M6.95312 2.34375V5.70312H3.82812V2.34375C3.82812 1.48047 4.52734 0.78125 5.39062 0.78125C6.25391 0.78125 6.95312 1.48047 6.95312 2.34375Z" fill="white"/>
</svg>
