<svg width="18" height="20" viewBox="0 0 18 20" fill="none" xmlns="http://www.w3.org/2000/svg">
<path d="M11.3629 12.9375C10.941 12.3515 10.7769 11.8476 10.7418 11.332V9.36324C10.7418 7.82809 8.39805 7.82809 8.39805 9.37496V12.3046C8.39805 12.6328 8.14028 12.8906 7.81211 12.8906C7.48395 12.8906 7.22617 12.6328 7.22617 12.3046V9.60934C7.22617 9.45699 7.26137 9.30465 7.30821 9.16402L8.19047 7.03121C7.97567 7.03184 7.67133 7.06199 7.23703 7.07027C6.80078 7.07027 6.3991 6.90613 6.0502 6.7025L5.17535 8.88281C4.97617 9.37496 4.88239 9.89062 4.88239 10.4062V13.8164C4.88239 14.4609 5.03473 15.1055 5.3277 15.6679C5.81985 16.6289 6.05426 17.7851 6.05426 18.8633V19.4141C6.05426 19.7422 6.31203 20 6.6402 20H10.1558C10.484 20 10.7418 19.7422 10.7418 19.4141V17.2266C10.7418 17.0507 10.8004 16.9101 10.8941 16.8281C11.5504 16.2773 11.9136 15.4921 11.9136 14.6484C11.9137 14.0273 11.7262 13.4414 11.3629 12.9375Z" fill="white"/>
<path d="M17.1871 1.17188H16.6364C15.5582 1.17188 14.4801 0.9375 13.5191 0.445312C12.9567 0.152344 12.3122 0 11.6676 0H8.25746C7.74184 0 7.22621 0.0937891 6.73403 0.292969L1.03864 2.57812C-0.402731 3.15234 0.265238 5.20312 1.56598 4.66402L7.01528 2.42578C7.1559 2.37895 7.30824 2.34375 7.46059 2.34375H10.1559C10.4841 2.34375 10.7418 2.60152 10.7418 2.92969C10.7418 3.25785 10.4841 3.51562 10.1559 3.51562H7.22621C6.58168 3.51562 6.05434 4.04297 6.05434 4.6875C6.05434 5.36723 6.6168 5.85938 7.21449 5.85938H9.18324C9.69887 5.89449 10.2028 6.05859 10.7887 6.48051C11.2926 6.84379 11.8786 7.03125 12.4997 7.03125C13.3434 7.03125 14.1286 6.66797 14.6794 6.01172C14.7614 5.91793 14.902 5.85938 15.0779 5.85938H17.1872C17.5154 5.85938 17.7732 5.6016 17.7732 5.27344V1.75781C17.773 1.42965 17.5153 1.17188 17.1871 1.17188Z" fill="white"/>
</svg>
