<svg width="16" height="24" viewBox="0 0 16 24" fill="none" xmlns="http://www.w3.org/2000/svg">
<path d="M8.32734 0.00376738C4.97046 -0.116121 2.3329 2.64132 2.21301 5.9982C2.21301 9.35509 4.97045 12.1125 8.20745 12.1125C11.5643 12.1125 14.3218 9.47497 14.3218 6.11809C14.4417 2.76121 11.6842 0.00376738 8.32734 0.00376738ZM8.32734 8.99542C6.6489 8.99542 5.33012 7.67664 5.33012 6.11809C5.21024 4.43965 6.6489 3.12087 8.32734 3.12087C10.0058 3.12087 11.3246 4.43965 11.3246 6.11809C11.3246 7.79653 10.0058 8.99542 8.32734 8.99542ZM15.161 14.5103C14.4417 15.2296 13.4826 15.8291 12.5234 16.1887C11.5643 16.5484 10.4853 16.6683 9.52623 16.9081C9.64612 17.028 9.76602 17.1479 9.76602 17.2677C11.2047 18.7064 12.5235 20.0252 13.8422 21.344C14.3218 21.8235 14.4417 22.423 14.082 23.0224C13.8422 23.6218 13.2428 24.1014 12.5234 23.9815C12.1638 23.9815 11.8041 23.7417 11.5644 23.502C10.4854 22.423 9.40635 21.4638 8.44724 20.3848C8.20746 20.1451 7.96768 20.1451 7.7279 20.3848C6.6489 21.4638 5.56989 22.5428 4.61078 23.502C4.13123 23.9815 3.53179 24.1014 2.93235 23.7417C2.33291 23.502 1.97325 22.9025 1.97325 22.3031C1.97325 21.8235 2.21302 21.5837 2.4528 21.2241C3.89147 19.7854 5.21024 18.4666 6.52901 17.1479C6.6489 17.028 6.64891 16.9081 6.7688 16.9081C4.97047 16.6683 3.17213 16.1887 1.85336 15.1097C1.73347 14.9899 1.4937 14.87 1.37381 14.6302C0.654478 14.0307 0.654464 13.3114 1.13402 12.5921C1.61357 11.9926 2.21302 11.8727 3.05225 12.1125C3.17213 12.2324 3.29202 12.2324 3.53179 12.3523C6.16935 14.1506 9.8859 14.2705 12.6433 12.4722C12.8831 12.2324 13.1229 12.1125 13.4825 11.9926C14.2019 11.8727 14.6815 12.1125 15.0411 12.712C15.6406 13.3114 15.6406 14.0307 15.161 14.5103Z" fill="white"/>
</svg>
