<svg width="6" height="10" viewBox="0 0 6 10" fill="none" xmlns="http://www.w3.org/2000/svg">
<path d="M1.61719 6.1582V5.72461C1.61719 5.34961 1.69727 5.02344 1.85742 4.74609C2.01758 4.46875 2.31055 4.17383 2.73633 3.86133C3.14648 3.56836 3.41602 3.33008 3.54492 3.14648C3.67773 2.96289 3.74414 2.75781 3.74414 2.53125C3.74414 2.27734 3.65039 2.08398 3.46289 1.95117C3.27539 1.81836 3.01367 1.75195 2.67773 1.75195C2.0918 1.75195 1.42383 1.94336 0.673828 2.32617L0.0351562 1.04297C0.90625 0.554688 1.83008 0.310547 2.80664 0.310547C3.61133 0.310547 4.25 0.503906 4.72266 0.890625C5.19922 1.27734 5.4375 1.79297 5.4375 2.4375C5.4375 2.86719 5.33984 3.23828 5.14453 3.55078C4.94922 3.86328 4.57812 4.21484 4.03125 4.60547C3.65625 4.88281 3.41797 5.09375 3.31641 5.23828C3.21875 5.38281 3.16992 5.57227 3.16992 5.80664V6.1582H1.61719ZM1.42969 8.16211C1.42969 7.83398 1.51758 7.58594 1.69336 7.41797C1.86914 7.25 2.125 7.16602 2.46094 7.16602C2.78516 7.16602 3.03516 7.25195 3.21094 7.42383C3.39062 7.5957 3.48047 7.8418 3.48047 8.16211C3.48047 8.4707 3.39062 8.71484 3.21094 8.89453C3.03125 9.07031 2.78125 9.1582 2.46094 9.1582C2.13281 9.1582 1.87891 9.07227 1.69922 8.90039C1.51953 8.72461 1.42969 8.47852 1.42969 8.16211Z" fill="white"/>
</svg>
