<svg width="80" height="80" viewBox="0 0 80 80" fill="none" xmlns="http://www.w3.org/2000/svg">
<path d="M40 25.1915C46.9447 25.1915 52.5957 19.5404 52.5957 12.5957C52.5957 5.65106 46.9447 0 40 0C33.0553 0 27.4042 5.65106 27.4042 12.5957C27.4042 19.5404 33.0553 25.1915 40 25.1915ZM40 2.55319C45.5319 2.55319 50.0425 7.06383 50.0425 12.5957C50.0425 18.1277 45.5319 22.6383 40 22.6383C34.4681 22.6383 29.9574 18.1277 29.9574 12.5957C29.9574 7.06383 34.4681 2.55319 40 2.55319Z" fill="white"/>
<path d="M19.4893 50.8085H60.5276C61.2255 50.8085 61.8042 50.2298 61.8042 49.5319C61.8042 37.5149 52.034 27.7447 40.017 27.7447C28 27.7447 18.2298 37.5149 18.2298 49.5319C18.2127 50.2468 18.7744 50.8085 19.4893 50.8085ZM40 30.2979C50.1787 30.2979 58.5361 38.2468 59.2 48.2553H20.8C21.4638 38.2468 29.8213 30.2979 40 30.2979Z" fill="white"/>
<path d="M23.8979 64.2894L16.9021 63.1149L13.617 56.817C13.3957 56.3915 12.9532 56.1362 12.4766 56.1362C12 56.1362 11.5574 56.4085 11.3361 56.817L8.05104 63.1149L1.0553 64.2894C0.5787 64.3745 0.204232 64.6979 0.0510406 65.1574C-0.102151 65.617 0.0169981 66.1106 0.357424 66.4511L5.32764 71.5234L4.28934 78.5532C4.22125 79.0298 4.40849 79.4894 4.79998 79.7787C5.19147 80.0511 5.68508 80.1021 6.12764 79.8809L12.4766 76.7149L18.8255 79.8809C19.0127 79.966 19.2 80.017 19.3872 80.017C19.6596 80.017 19.9149 79.9319 20.1361 79.7787C20.5276 79.5064 20.7149 79.0298 20.6468 78.5532L19.6085 71.5234L24.5787 66.4511C24.9191 66.1106 25.0213 65.617 24.8851 65.1574C24.7489 64.6979 24.3744 64.3745 23.8979 64.2894ZM17.3617 70.1787C17.0893 70.4681 16.9532 70.8596 17.0042 71.2681L17.7872 76.4936L13.0553 74.1447C12.6978 73.9745 12.2723 73.9745 11.9149 74.1447L7.18296 76.4936L7.96593 71.2681C8.017 70.8766 7.89785 70.4681 7.60849 70.1787L3.89785 66.4L9.10636 65.5319C9.49785 65.4638 9.83827 65.2255 10.0255 64.8681L12.4766 60.1872L14.9276 64.8511C15.1149 65.2085 15.4553 65.4468 15.8468 65.5149L21.0553 66.383L17.3617 70.1787Z" fill="white"/>
<path d="M51.4213 64.2894L44.4255 63.1149L41.1404 56.817C40.9191 56.3915 40.4766 56.1362 40 56.1362C39.5234 56.1362 39.0808 56.4085 38.8596 56.817L35.5744 63.1149L28.5787 64.2894C28.1021 64.3745 27.7276 64.6979 27.5744 65.1574C27.4213 65.617 27.5404 66.1106 27.8808 66.4511L32.851 71.5234L31.8127 78.5532C31.7447 79.0298 31.9319 79.4894 32.3234 79.7787C32.7149 80.0511 33.2085 80.1021 33.651 79.8809L40 76.7149L46.3489 79.8809C46.5361 79.966 46.7234 80.017 46.9106 80.017C47.183 80.017 47.4383 79.9319 47.6596 79.7787C48.051 79.5064 48.2383 79.0298 48.1702 78.5532L47.1319 71.5234L52.1021 66.4511C52.4425 66.1106 52.5447 65.617 52.4085 65.1574C52.2723 64.6979 51.8808 64.3745 51.4213 64.2894ZM44.8681 70.1787C44.5957 70.4681 44.4596 70.8596 44.5106 71.2681L45.2936 76.4936L40.5617 74.1447C40.3744 74.0596 40.1872 74.0085 40 74.0085C39.8127 74.0085 39.6085 74.0596 39.4383 74.1447L34.7064 76.4936L35.4893 71.2681C35.5404 70.8766 35.4213 70.4681 35.1319 70.1787L31.4213 66.4L36.6298 65.5319C37.0213 65.4638 37.3617 65.2255 37.5489 64.8681L40 60.1872L42.451 64.8681C42.6383 65.2255 42.9787 65.4638 43.3702 65.5319L48.5787 66.4L44.8681 70.1787Z" fill="white"/>
<path d="M79.9319 65.1574C79.7787 64.6979 79.4042 64.3745 78.9276 64.2894L71.9319 63.1149L68.6468 56.817C68.4255 56.3915 67.983 56.1362 67.5064 56.1362C67.0298 56.1362 66.5872 56.4085 66.3659 56.817L63.0808 63.1149L56.0851 64.2894C55.6085 64.3745 55.234 64.6979 55.0808 65.1574C54.9276 65.617 55.0468 66.1106 55.3872 66.4511L60.3574 71.5234L59.3191 78.5532C59.251 79.0298 59.4383 79.4894 59.8298 79.7787C60.2213 80.0511 60.7149 80.1021 61.1574 79.8809L67.5064 76.7149L73.8553 79.8809C74.0425 79.966 74.2298 80.017 74.417 80.017C74.6893 80.017 74.9447 79.9319 75.1659 79.7787C75.5574 79.5064 75.7447 79.0298 75.6766 78.5532L74.6383 71.5234L79.6085 66.4511C79.9659 66.1106 80.0851 65.6 79.9319 65.1574ZM72.3915 70.1787C72.1191 70.4681 71.983 70.8596 72.034 71.2681L72.817 76.4936L68.0851 74.1277C67.8979 74.0426 67.7106 73.9915 67.5234 73.9915C67.3362 73.9915 67.1319 74.0426 66.9617 74.1277L62.2298 76.4766L63.0127 71.2511C63.0638 70.8596 62.9447 70.4511 62.6553 70.1617L58.9447 66.383L64.1532 65.5149C64.5447 65.4468 64.8851 65.2085 65.0723 64.8511L67.5234 60.1702L69.9574 64.8511C70.1447 65.2085 70.4851 65.4468 70.8766 65.5149L76.0851 66.383L72.3915 70.1787Z" fill="white"/>
</svg>
