<svg width="24" height="21" viewBox="0 0 24 21" fill="none" xmlns="http://www.w3.org/2000/svg">
<path d="M22.4598 0.478833L0.509819 9.03249C-0.201143 9.30957 -0.158072 10.3298 0.573777 10.5459L6.15149 12.193L8.2331 18.7981C8.45054 19.4881 9.32485 19.6972 9.83098 19.1804L12.7148 16.2359L18.3731 20.3892C19.0656 20.8975 20.0517 20.5199 20.2275 19.6791L23.9751 1.76211C24.1586 0.88448 23.2952 0.153278 22.4598 0.478833ZM19.7078 4.45506L9.51219 13.4711C9.41057 13.5609 9.34589 13.6853 9.33076 13.8202L8.93822 17.3096C8.9254 17.4234 8.76615 17.4385 8.73216 17.3292L7.11713 12.1251C7.04316 11.8869 7.13961 11.6287 7.35158 11.4973L19.3915 4.02997C19.6684 3.85812 19.9519 4.23928 19.7078 4.45506Z" fill="white"/>
</svg>
