<svg width="24" height="15" viewBox="0 0 24 15" fill="none" xmlns="http://www.w3.org/2000/svg">
<path d="M23.4108 14.339H19.9043C19.0276 14.4364 18.2484 14.0468 17.664 13.4624C17.177 12.9754 16.7874 12.4884 16.3003 11.904C16.1055 11.7092 15.9108 11.5144 15.6185 11.3196C15.1315 11.0273 14.7419 11.1247 14.4497 11.6118C14.1575 12.0988 14.1575 12.6832 14.0601 13.2676C14.0601 14.0468 13.7679 14.339 12.8912 14.339C11.138 14.4364 9.48217 14.1442 7.92373 13.2676C6.56009 12.4884 5.48866 11.3196 4.51463 10.1507C2.76138 7.71565 1.30033 4.98837 0.131499 2.26109C-0.16071 1.67667 0.0340724 1.28706 0.715892 1.28706C1.88473 1.28706 2.95616 1.28706 4.12499 1.28706C4.61201 1.28706 4.90421 1.57927 5.09902 1.96888C5.68344 3.52733 6.46268 4.89097 7.43671 6.25461C7.63152 6.54681 7.92372 6.93643 8.31333 7.22863C8.70294 7.52084 8.99515 7.42344 9.18995 6.93643C9.28735 6.64422 9.38477 6.35201 9.38477 6.0598C9.48217 4.98837 9.48217 3.91694 9.28736 2.94291C9.18996 2.26109 8.80033 1.87148 8.11851 1.77408C7.82631 1.67667 7.8263 1.57927 8.0211 1.38447C8.31331 1.09226 8.60553 0.800049 9.09254 0.800049H12.9887C13.5731 0.897452 13.7679 1.18966 13.8653 1.77408V6.1572C13.8653 6.35201 13.9627 7.13123 14.4497 7.32604C14.7419 7.42344 15.0341 7.13123 15.2289 6.93643C16.203 5.9624 16.8848 4.69616 17.4692 3.52733C17.7614 2.94291 17.9562 2.4559 18.151 1.87148C18.3458 1.48187 18.638 1.28706 19.0276 1.28706H22.8263C22.9238 1.28706 23.0211 1.28706 23.1185 1.28706C23.8004 1.38447 23.8978 1.67667 23.703 2.26109C23.4108 3.23512 22.8263 4.01434 22.1445 4.89097C21.4627 5.76759 20.7809 6.64422 20.1965 7.52084C19.7094 8.30007 19.7095 8.78708 20.3913 9.4689C21.1705 10.2481 22.0471 10.9299 22.7289 11.8066C23.0211 12.1962 23.3134 12.5858 23.6056 13.0728C24.2874 13.5598 23.9952 14.339 23.4108 14.339Z" fill="white"/>
</svg>
