<svg width="24" height="19" viewBox="0 0 24 19" fill="none" xmlns="http://www.w3.org/2000/svg">
<path d="M23.7714 4.3999C23.7714 4.3999 23.5429 2.57133 22.8571 1.77133C21.9429 0.74276 20.9143 0.742759 20.4571 0.742759C17.0286 0.514187 12 0.399902 12 0.399902C12 0.399902 10.7429 0.399901 9.02856 0.514186C7.31428 0.514186 5.25715 0.628473 3.54286 0.742759C3.08572 0.742759 2.05714 0.857046 1.14286 1.77133C0.457143 2.57133 0.228585 4.3999 0.228585 4.3999C0.228585 4.3999 0 6.57133 0 8.62848V10.5713C0 12.6285 0.228585 14.7999 0.228585 14.7999C0.228585 14.7999 0.457143 16.6285 1.14286 17.4285C2.05714 18.457 3.31427 18.457 3.77141 18.5713C5.71427 18.6856 12 18.6856 12 18.6856C12 18.6856 17.0286 18.6856 20.4571 18.3428C20.9143 18.3428 21.9429 18.2285 22.8571 17.3142C23.5429 16.5142 23.7714 14.6856 23.7714 14.6856C23.7714 14.6856 24 12.6285 24 10.457V8.51419C24 6.45704 23.7714 4.3999 23.7714 4.3999ZM9.14286 14.3428V5.31419L17.0286 9.88562L9.14286 14.3428Z" fill="white"/>
</svg>
